<svg xmlns="http://www.w3.org/2000/svg" viewBox="0 0 256 256" width="256" height="256">
  <defs>
    <!-- Subtle vertical gradient — Apple icons rarely use a flat fill. -->
    <linearGradient id="bgLight" x1="0" y1="0" x2="0" y2="1">
      <stop offset="0" stop-color="#ffffff"/>
      <stop offset="1" stop-color="#eceef1"/>
    </linearGradient>
    <linearGradient id="bgDark" x1="0" y1="0" x2="0" y2="1">
      <stop offset="0" stop-color="#23262a"/>
      <stop offset="1" stop-color="#14171a"/>
    </linearGradient>
    <!-- iOS continuous-corner squircle (n≈5 superellipse approximation
         via asymmetric cubic beziers; ~22% radius, 0.6 smoothness factor). -->
    <clipPath id="iconShape">
      <path d="M 92.16000000000001 0 L 163.83999999999997 0 C 221.44 0 256 34.56 256 92.16000000000001 L 256 163.83999999999997 C 256 221.44 221.44 256 163.83999999999997 256 L 92.16000000000001 256 C 34.56 256 0 221.44 0 163.83999999999997 L 0 92.16000000000001 C 0 34.56 34.56 0 92.16000000000001 0 Z"/>
    </clipPath>
  </defs>
  <style>
    .bg { fill: url(#bgLight); }
    .b  { fill: #012169; }
    .r  { fill: #6e6e73; }
    @media (prefers-color-scheme: dark) {
      .bg { fill: url(#bgDark); }
      .b  { fill: #0577B1; }
      .r  { fill: #adb5bd; }
    }
  </style>
  <g clip-path="url(#iconShape)">
    <path class="bg" d="M 92.16000000000001 0 L 163.83999999999997 0 C 221.44 0 256 34.56 256 92.16000000000001 L 256 163.83999999999997 C 256 221.44 221.44 256 163.83999999999997 256 L 92.16000000000001 256 C 34.56 256 0 221.44 0 163.83999999999997 L 0 92.16000000000001 C 0 34.56 34.56 0 92.16000000000001 0 Z"/>
    <!-- BR letterforms — extracted from SF Pro at the Display optical-size
         variant (opsz=96), B at weight 800, R at weight 400. The wide
         weight gap (vs the previous 700/500) makes the primary/supporting
         hierarchy unmistakable at favicon size. Embedded as paths so
         rendering is identical on every OS. -->
    <g transform="translate(48.579 174.080) scale(0.063867 -0.063867)">
      <path class="b" d="M257.3316650390625 0V202.66400146484375H673.6657104492188Q814.3336791992188 202.66400146484375 888.5009765625 259.16448974609375Q962.6682739257812 315.66497802734375 962.6682739257812 423.66595458984375V425.66595458984375Q962.6682739257812 498 928.5013122558594 547.0004272460938Q894.3343505859375 596.0008544921875 826.833740234375 620.667724609375Q759.3331298828125 645.3345947265625 659.3322143554688 645.3345947265625H257.3316650390625V833.6658935546875H618.6649169921875Q756.9995727539062 833.6658935546875 829.6669616699219 888.4996643066406Q902.3343505859375 943.3334350585938 902.3343505859375 1044.667724609375V1046.667724609375Q902.3343505859375 1139.6685791015625 839.3338623046875 1190.0022888183594Q776.3333740234375 1240.3359985351562 661.9990234375 1240.3359985351562H257.3316650390625V1443H727.6641845703125Q859.9970092773438 1443 957.1634216308594 1398.4999694824219Q1054.329833984375 1353.9999389648438 1107.6630859375 1272.8332824707031Q1160.996337890625 1191.6666259765625 1160.996337890625 1081.666748046875V1079.666748046875Q1160.996337890625 1001.6669311523438 1125.3297729492188 934.000244140625Q1089.6632080078125 866.3335571289062 1027.8300476074219 821.1668090820312Q965.9968872070312 776.0000610351562 887.9970703125 765.0000610351562V759.6668090820312Q989.6638793945312 750.9999389648438 1066.8304138183594 703.9998779296875Q1143.9969482421875 656.9998168945312 1186.9967651367188 581.4998168945312Q1229.99658203125 505.99981689453125 1229.99658203125 410.66644287109375V408.66644287109375Q1229.99658203125 282.33306884765625 1169.9966735839844 190.8331298828125Q1109.9967651367188 99.33319091796875 999.3302001953125 49.666595458984375Q888.6636352539062 0 734.330322265625 0ZM126.66748046875 0V1443H387.995849609375V0Z"/>
    </g>
    <g transform="translate(125.480 174.080) scale(0.063867 -0.063867)">
      <path class="r" d="M126.66748046875 0V1443H703.9985961914062Q858.664306640625 1443 970.163818359375 1388.3334045410156Q1081.663330078125 1333.6668090820312 1141.6631469726562 1232.6670837402344Q1201.6629638671875 1131.6673583984375 1201.6629638671875 991.66796875V989.66796875Q1201.6629638671875 844.6676635742188 1128.829345703125 734.3343811035156Q1055.9957275390625 624.0010986328125 930.9951171875 578.3345947265625L1244.996337890625 0H946.3350219726562L664.3333740234375 538.6686401367188Q661.0000610351562 538.6686401367188 657.6667785644531 538.6686401367188Q654.33349609375 538.6686401367188 650.6668701171875 538.6686401367188H387.995849609375V0ZM387.995849609375 744.3324584960938H676.999267578125Q798.3336791992188 744.3324584960938 866.0008239746094 808.666259765625Q933.66796875 873.0000610351562 933.66796875 988.0011596679688V990.0011596679688Q933.66796875 1102.3355102539062 863.0007629394531 1167.1693115234375Q792.3335571289062 1232.0031127929688 671.665771484375 1232.0031127929688H387.995849609375Z"/>
    </g>
  </g>
</svg>
