<svg xmlns="http://www.w3.org/2000/svg" style="display: none;" aria-hidden="true">
  <!-- lucide.dev icons. Referenced via <svg class="icon-svg"><use href="icons.svg#icon-name"/></svg>.
       stroke="currentColor" inherits text color; width/height follow font-size via 1em. -->
  <symbol id="icon-x" viewBox="0 0 24 24" fill="none" stroke="currentColor" stroke-width="2" stroke-linecap="round" stroke-linejoin="round">
    <path d="M18 6 6 18"/>
    <path d="m6 6 12 12"/>
  </symbol>
  <!-- Vertical three-dots reads distinctly as "overflow menu" (Material pattern);
       horizontal ellipsis overlapped with "text continues / loading" semantics. -->
  <symbol id="icon-more" viewBox="0 0 24 24" fill="none" stroke="currentColor" stroke-width="2" stroke-linecap="round" stroke-linejoin="round">
    <circle cx="12" cy="5" r="1"/>
    <circle cx="12" cy="12" r="1"/>
    <circle cx="12" cy="19" r="1"/>
  </symbol>
  <symbol id="icon-plus" viewBox="0 0 24 24" fill="none" stroke="currentColor" stroke-width="2" stroke-linecap="round" stroke-linejoin="round">
    <path d="M5 12h14"/>
    <path d="M12 5v14"/>
  </symbol>
  <symbol id="icon-chevron-down" viewBox="0 0 24 24" fill="none" stroke="currentColor" stroke-width="2" stroke-linecap="round" stroke-linejoin="round">
    <path d="m6 9 6 6 6-6"/>
  </symbol>
  <!-- Swap (lucide arrow-left-right). Used on a cap-section when more
       than one robot member declares the same cap and the user wants to
       pick a different source than the first-member-wins default. -->
  <symbol id="icon-swap" viewBox="0 0 24 24" fill="none" stroke="currentColor" stroke-width="2" stroke-linecap="round" stroke-linejoin="round">
    <path d="m16 3 4 4-4 4"/>
    <path d="M20 7H4"/>
    <path d="m8 21-4-4 4-4"/>
    <path d="M4 17h16"/>
  </symbol>
  <symbol id="icon-message-circle" viewBox="0 0 24 24" fill="none" stroke="currentColor" stroke-width="2" stroke-linecap="round" stroke-linejoin="round">
    <path d="M7.9 20A9 9 0 1 0 4 16.1L2 22Z"/>
  </symbol>
  <symbol id="icon-smartphone" viewBox="0 0 24 24" fill="none" stroke="currentColor" stroke-width="2" stroke-linecap="round" stroke-linejoin="round">
    <rect width="14" height="20" x="5" y="2" rx="2" ry="2"/>
    <path d="M12 18h.01"/>
  </symbol>
  <symbol id="icon-monitor" viewBox="0 0 24 24" fill="none" stroke="currentColor" stroke-width="2" stroke-linecap="round" stroke-linejoin="round">
    <rect width="20" height="14" x="2" y="3" rx="2"/>
    <line x1="8" x2="16" y1="21" y2="21"/>
    <line x1="12" x2="12" y1="17" y2="21"/>
  </symbol>
  <symbol id="icon-camera" viewBox="0 0 24 24" fill="none" stroke="currentColor" stroke-width="2" stroke-linecap="round" stroke-linejoin="round">
    <path d="M14.5 4h-5L7 7H4a2 2 0 0 0-2 2v9a2 2 0 0 0 2 2h16a2 2 0 0 0 2-2V9a2 2 0 0 0-2-2h-3l-2.5-3z"/>
    <circle cx="12" cy="13" r="3"/>
  </symbol>
  <symbol id="icon-bluetooth" viewBox="0 0 24 24" fill="none" stroke="currentColor" stroke-width="2" stroke-linecap="round" stroke-linejoin="round">
    <path d="m7 7 10 10-5 5V2l5 5L7 17"/>
  </symbol>
  <symbol id="icon-wifi" viewBox="0 0 24 24" fill="none" stroke="currentColor" stroke-width="2" stroke-linecap="round" stroke-linejoin="round">
    <path d="M12 20h.01"/>
    <path d="M2 8.82a15 15 0 0 1 20 0"/>
    <path d="M5 12.859a10 10 0 0 1 14 0"/>
    <path d="M8.5 16.429a5 5 0 0 1 7 0"/>
  </symbol>
  <symbol id="icon-usb" viewBox="0 0 24 24" fill="none" stroke="currentColor" stroke-width="2" stroke-linecap="round" stroke-linejoin="round">
    <circle cx="10" cy="7" r="1"/>
    <circle cx="4" cy="20" r="1"/>
    <path d="M4.7 19.3 19 5"/>
    <path d="m21 3-3 1 2 2z"/>
    <path d="M9.26 7.68 5 12l2 5"/>
    <path d="m10 14 5 2 3.5-3.5"/>
    <path d="M18 12h2v-2"/>
  </symbol>
  <symbol id="icon-settings" viewBox="0 0 24 24" fill="none" stroke="currentColor" stroke-width="2" stroke-linecap="round" stroke-linejoin="round">
    <path d="M12.22 2h-.44a2 2 0 0 0-2 2v.18a2 2 0 0 1-1 1.73l-.43.25a2 2 0 0 1-2 0l-.15-.08a2 2 0 0 0-2.73.73l-.22.38a2 2 0 0 0 .73 2.73l.15.1a2 2 0 0 1 1 1.72v.51a2 2 0 0 1-1 1.74l-.15.09a2 2 0 0 0-.73 2.73l.22.38a2 2 0 0 0 2.73.73l.15-.08a2 2 0 0 1 2 0l.43.25a2 2 0 0 1 1 1.73V20a2 2 0 0 0 2 2h.44a2 2 0 0 0 2-2v-.18a2 2 0 0 1 1-1.73l.43-.25a2 2 0 0 1 2 0l.15.08a2 2 0 0 0 2.73-.73l.22-.39a2 2 0 0 0-.73-2.73l-.15-.08a2 2 0 0 1-1-1.74v-.5a2 2 0 0 1 1-1.74l.15-.09a2 2 0 0 0 .73-2.73l-.22-.38a2 2 0 0 0-2.73-.73l-.15.08a2 2 0 0 1-2 0l-.43-.25a2 2 0 0 1-1-1.73V4a2 2 0 0 0-2-2z"/>
    <circle cx="12" cy="12" r="3"/>
  </symbol>
  <symbol id="icon-life-buoy" viewBox="0 0 24 24" fill="none" stroke="currentColor" stroke-width="2" stroke-linecap="round" stroke-linejoin="round">
    <circle cx="12" cy="12" r="10"/>
    <path d="m4.93 4.93 4.24 4.24"/>
    <path d="m14.83 9.17 4.24-4.24"/>
    <path d="m14.83 14.83 4.24 4.24"/>
    <path d="m9.17 14.83-4.24 4.24"/>
    <circle cx="12" cy="12" r="4"/>
  </symbol>
  <symbol id="icon-terminal" viewBox="0 0 24 24" fill="none" stroke="currentColor" stroke-width="2" stroke-linecap="round" stroke-linejoin="round">
    <polyline points="4 17 10 11 4 5"/>
    <line x1="12" x2="20" y1="19" y2="19"/>
  </symbol>
  <symbol id="icon-file-code" viewBox="0 0 24 24" fill="none" stroke="currentColor" stroke-width="2" stroke-linecap="round" stroke-linejoin="round">
    <path d="M4 22h14a2 2 0 0 0 2-2V7l-5-5H6a2 2 0 0 0-2 2v4"/>
    <path d="M14 2v4a2 2 0 0 0 2 2h4"/>
    <path d="m5 12-3 3 3 3"/>
    <path d="m9 18 3-3-3-3"/>
  </symbol>
  <symbol id="icon-download" viewBox="0 0 24 24" fill="none" stroke="currentColor" stroke-width="2" stroke-linecap="round" stroke-linejoin="round">
    <path d="M21 15v4a2 2 0 0 1-2 2H5a2 2 0 0 1-2-2v-4"/>
    <polyline points="7 10 12 15 17 10"/>
    <line x1="12" x2="12" y1="15" y2="3"/>
  </symbol>
  <symbol id="icon-refresh-ccw" viewBox="0 0 24 24" fill="none" stroke="currentColor" stroke-width="2" stroke-linecap="round" stroke-linejoin="round">
    <path d="M21 12a9 9 0 0 0-9-9 9.75 9.75 0 0 0-6.74 2.74L3 8"/>
    <path d="M3 3v5h5"/>
    <path d="M3 12a9 9 0 0 0 9 9 9.75 9.75 0 0 0 6.74-2.74L21 16"/>
    <path d="M16 16h5v5"/>
  </symbol>
  <symbol id="icon-refresh-cw" viewBox="0 0 24 24" fill="none" stroke="currentColor" stroke-width="2" stroke-linecap="round" stroke-linejoin="round">
    <path d="M3 12a9 9 0 0 1 9-9 9.75 9.75 0 0 1 6.74 2.74L21 8"/>
    <path d="M21 3v5h-5"/>
    <path d="M21 12a9 9 0 0 1-9 9 9.75 9.75 0 0 1-6.74-2.74L3 16"/>
    <path d="M8 16H3v5"/>
  </symbol>
  <symbol id="icon-trash-2" viewBox="0 0 24 24" fill="none" stroke="currentColor" stroke-width="2" stroke-linecap="round" stroke-linejoin="round">
    <path d="M3 6h18"/>
    <path d="M19 6v14a2 2 0 0 1-2 2H7a2 2 0 0 1-2-2V6"/>
    <path d="M8 6V4a2 2 0 0 1 2-2h4a2 2 0 0 1 2 2v2"/>
    <line x1="10" x2="10" y1="11" y2="17"/>
    <line x1="14" x2="14" y1="11" y2="17"/>
  </symbol>
  <symbol id="icon-tag" viewBox="0 0 24 24" fill="none" stroke="currentColor" stroke-width="2" stroke-linecap="round" stroke-linejoin="round">
    <path d="M12.586 2.586A2 2 0 0 0 11.172 2H4a2 2 0 0 0-2 2v7.172a2 2 0 0 0 .586 1.414l8.704 8.704a2.426 2.426 0 0 0 3.42 0l6.58-6.58a2.426 2.426 0 0 0 0-3.42z"/>
    <circle cx="7.5" cy="7.5" r=".5" fill="currentColor"/>
  </symbol>
  <symbol id="icon-download-cloud" viewBox="0 0 24 24" fill="none" stroke="currentColor" stroke-width="2" stroke-linecap="round" stroke-linejoin="round">
    <path d="M4 14.899A7 7 0 1 1 15.71 8h1.79a4.5 4.5 0 0 1 2.5 8.242"/>
    <path d="M12 12v9"/>
    <path d="m8 17 4 4 4-4"/>
  </symbol>
  <symbol id="icon-file-up" viewBox="0 0 24 24" fill="none" stroke="currentColor" stroke-width="2" stroke-linecap="round" stroke-linejoin="round">
    <path d="M14 2H6a2 2 0 0 0-2 2v16a2 2 0 0 0 2 2h12a2 2 0 0 0 2-2V8z"/>
    <polyline points="14 2 14 8 20 8"/>
    <path d="M12 12v6"/>
    <path d="m15 15-3-3-3 3"/>
  </symbol>
  <symbol id="icon-power" viewBox="0 0 24 24" fill="none" stroke="currentColor" stroke-width="2" stroke-linecap="round" stroke-linejoin="round">
    <path d="M12 2v10"/>
    <path d="M18.4 6.6a9 9 0 1 1-12.77.04"/>
  </symbol>
  <symbol id="icon-scroll-text" viewBox="0 0 24 24" fill="none" stroke="currentColor" stroke-width="2" stroke-linecap="round" stroke-linejoin="round">
    <path d="M15 12h-5"/>
    <path d="M15 8h-5"/>
    <path d="M19 17V5a2 2 0 0 0-2-2H4"/>
    <path d="M8 21h12a2 2 0 0 0 2-2v-1a1 1 0 0 0-1-1H11a1 1 0 0 0-1 1v1a2 2 0 1 1-4 0V5a2 2 0 1 0-4 0v2a1 1 0 0 0 1 1h3"/>
  </symbol>
  <symbol id="icon-cpu" viewBox="0 0 24 24" fill="none" stroke="currentColor" stroke-width="2" stroke-linecap="round" stroke-linejoin="round">
    <rect width="16" height="16" x="4" y="4" rx="2"/>
    <rect width="6" height="6" x="9" y="9"/>
    <path d="M15 2v2"/>
    <path d="M15 20v2"/>
    <path d="M2 15h2"/>
    <path d="M2 9h2"/>
    <path d="M20 15h2"/>
    <path d="M20 9h2"/>
    <path d="M9 2v2"/>
    <path d="M9 20v2"/>
  </symbol>
  <symbol id="icon-git-merge" viewBox="0 0 24 24" fill="none" stroke="currentColor" stroke-width="2" stroke-linecap="round" stroke-linejoin="round">
    <circle cx="18" cy="18" r="3"/>
    <circle cx="6" cy="6" r="3"/>
    <path d="M6 21V9a9 9 0 0 0 9 9"/>
  </symbol>
  <symbol id="icon-git-branch" viewBox="0 0 24 24" fill="none" stroke="currentColor" stroke-width="2" stroke-linecap="round" stroke-linejoin="round">
    <line x1="6" x2="6" y1="3" y2="15"/>
    <circle cx="18" cy="6" r="3"/>
    <circle cx="6" cy="18" r="3"/>
    <path d="M18 9a9 9 0 0 1-9 9"/>
  </symbol>
  <symbol id="icon-unplug" viewBox="0 0 24 24" fill="none" stroke="currentColor" stroke-width="2" stroke-linecap="round" stroke-linejoin="round">
    <path d="M12 22v-5"/>
    <path d="M9 8V2"/>
    <path d="M15 8V2"/>
    <path d="M18 8v5a4 4 0 0 1-4 4h-4a4 4 0 0 1-4-4V8Z"/>
  </symbol>
</svg>
